<svg width="24" height="24" viewBox="0 0 24 24" fill="none" xmlns="http://www.w3.org/2000/svg">
<path fill-rule="evenodd" clip-rule="evenodd" d="M12 4C16.4181 4 20 7.58187 20 12C20 16.4181 16.4181 20 12 20C7.58187 20 4 16.4181 4 12C4 7.58187 7.58187 4 12 4V4Z" stroke="#091C3F" stroke-width="1.2" stroke-linecap="round" stroke-linejoin="round"/>
<path fill-rule="evenodd" clip-rule="evenodd" d="M11.9998 15.7334C12.5891 15.7334 13.0664 16.2107 13.0664 16.8001C13.0664 17.3894 12.5891 17.8667 11.9998 17.8667C11.4104 17.8667 10.9331 17.3894 10.9331 16.8001C10.9331 16.2107 11.4104 15.7334 11.9998 15.7334V15.7334Z" stroke="#4157FF" stroke-width="1.2" stroke-linecap="round" stroke-linejoin="round"/>
<path d="M9.54688 8.26675C9.97354 7.30675 10.8802 6.66675 12.0002 6.66675C13.4935 6.66675 14.6669 7.84008 14.6669 9.33341C14.6669 10.8267 13.4935 12.0001 12.0002 12.0001V13.6001" stroke="#4157FF" stroke-width="1.2" stroke-linecap="round" stroke-linejoin="round"/>
</svg>
