<svg width="24" height="24" viewBox="0 0 24 24" fill="none" xmlns="http://www.w3.org/2000/svg">
<path d="M8.70947 14.6667V20.0001H17.7761V15.7334" stroke="#091C3F" stroke-width="1.2" stroke-linecap="round" stroke-linejoin="round"/>
<path fill-rule="evenodd" clip-rule="evenodd" d="M15.6426 13.5999C15.6426 12.4218 16.5978 11.4666 17.7759 11.4666C18.954 11.4666 19.9092 12.4218 19.9092 13.5999C19.9092 14.778 18.954 15.7332 17.7759 15.7332C16.5978 15.7332 15.6426 14.778 15.6426 13.5999V13.5999Z" stroke="#4157FF" stroke-width="1.2" stroke-linecap="round" stroke-linejoin="round"/>
<path d="M11.3757 4.53345H13.4184C13.7459 4.53345 13.996 4.82625 13.9448 5.14998L12.5848 13.7665C12.5027 14.2849 12.0557 14.6668 11.5309 14.6668H6.42054C5.89574 14.6668 5.4488 14.2849 5.36667 13.7665L4.00667 5.14998C3.95547 4.82625 4.2056 4.53345 4.53307 4.53345H6.57574" stroke="#091C3F" stroke-width="1.2" stroke-linecap="round" stroke-linejoin="round"/>
<path d="M6.57617 4V5.6" stroke="#4157FF" stroke-width="1.2" stroke-linecap="round" stroke-linejoin="round"/>
<path d="M11.376 4V5.6" stroke="#4157FF" stroke-width="1.2" stroke-linecap="round" stroke-linejoin="round"/>
</svg>
