<svg width="18" height="25" viewBox="0 0 18 25" fill="none" xmlns="http://www.w3.org/2000/svg">
<path d="M13 14.6V23.4L9 21.8L5 23.4V14.6" stroke="#091C3F" stroke-opacity="0.45" stroke-width="1.5" stroke-linecap="round" stroke-linejoin="round"/>
<path fill-rule="evenodd" clip-rule="evenodd" d="M3.4 3.4H6.6L9 1L11.4 3.4H14.6V6.6L17 9L14.6 11.4V14.6H11.4L9 17L6.6 14.6H3.4V11.4L1 9L3.4 6.6V3.4V3.4Z" stroke="#091C3F" stroke-opacity="0.45" stroke-width="1.5" stroke-linecap="round" stroke-linejoin="round"/>
<path fill-rule="evenodd" clip-rule="evenodd" d="M6.59961 8.99998C6.59961 7.67438 7.67401 6.59998 8.99961 6.59998C10.3252 6.59998 11.3996 7.67438 11.3996 8.99998C11.3996 10.3256 10.3252 11.4 8.99961 11.4C7.67401 11.4 6.59961 10.3256 6.59961 8.99998V8.99998Z" stroke="#091C3F" stroke-opacity="0.45" stroke-width="1.5" stroke-linecap="round" stroke-linejoin="round"/>
</svg>
