<svg width="17" height="20" viewBox="0 0 17 20" fill="none" xmlns="http://www.w3.org/2000/svg">
<path d="M13.0021 7.80085C13.0021 6.52759 12.4963 5.30647 11.596 4.40614C10.6957 3.5058 9.47454 3 8.20128 3C6.92801 3 5.7069 3.5058 4.80656 4.40614C3.90623 5.30647 3.40043 6.52759 3.40043 7.80085C3.40043 13.4018 1 15.0021 1 15.0021H15.4026C15.4026 15.0021 13.0021 13.4018 13.0021 7.80085Z" stroke="#090F47" stroke-opacity="0.45" stroke-width="1.2" stroke-linecap="round" stroke-linejoin="round"/>
<path d="M9.58538 18.2027C9.44471 18.4452 9.2428 18.6465 8.99986 18.7864C8.75693 18.9264 8.48149 19 8.20114 19C7.92079 19 7.64535 18.9264 7.40242 18.7864C7.15948 18.6465 6.95757 18.4452 6.81689 18.2027" stroke="#090F47" stroke-opacity="0.45" stroke-width="1.2" stroke-linecap="round" stroke-linejoin="round"/>
<circle cx="13" cy="4" r="3.5" fill="#FF0000" stroke="white"/>
</svg>
