<svg width="24" height="24" viewBox="0 0 24 24" fill="none" xmlns="http://www.w3.org/2000/svg">
<path d="M16.0021 8.80085C16.0021 7.52759 15.4963 6.30647 14.596 5.40614C13.6957 4.5058 12.4745 4 11.2013 4C9.92801 4 8.7069 4.5058 7.80656 5.40614C6.90623 6.30647 6.40043 7.52759 6.40043 8.80085C6.40043 14.4018 4 16.0021 4 16.0021H18.4026C18.4026 16.0021 16.0021 14.4018 16.0021 8.80085Z" stroke="#090F47" stroke-width="1.2" stroke-linecap="round" stroke-linejoin="round"/>
<path d="M12.5855 19.2027C12.4449 19.4452 12.243 19.6465 12 19.7864C11.7571 19.9264 11.4816 20 11.2013 20C10.9209 20 10.6455 19.9264 10.4026 19.7864C10.1596 19.6465 9.95772 19.4452 9.81705 19.2027" stroke="#090F47" stroke-width="1.2" stroke-linecap="round" stroke-linejoin="round"/>
<circle cx="16" cy="7" r="3.5" fill="#FF0000" stroke="white"/>
</svg>
